<?xml version="1.0" standalone="no"?>
<!DOCTYPE svg PUBLIC "-//W3C//DTD SVG 20010904//EN"
 "http://www.w3.org/TR/2001/REC-SVG-20010904/DTD/svg10.dtd">
<svg version="1.0" xmlns="http://www.w3.org/2000/svg"
 width="512.000000pt" height="512.000000pt" viewBox="0 0 512.000000 512.000000"
 preserveAspectRatio="xMidYMid meet">

<g transform="translate(0.000000,512.000000) scale(0.100000,-0.100000)"
fill="#000000" stroke="none">
<path d="M2438 4950 c-74 -13 -146 -39 -233 -83 -78 -39 -104 -64 -1137 -1096
-1150 -1149 -1081 -1073 -1063 -1168 9 -49 69 -109 118 -118 71 -14 103 0 193
87 l84 81 0 -1039 c0 -1139 -1 -1112 60 -1218 37 -65 111 -139 176 -176 97
-56 136 -60 612 -60 470 0 475 1 500 55 9 19 12 221 12 800 0 526 4 791 11
827 39 187 200 348 387 387 71 15 733 15 804 0 187 -39 348 -200 387 -387 7
-36 11 -301 11 -827 0 -579 3 -781 12 -800 25 -54 30 -55 500 -55 476 0 515 4
612 60 65 37 139 111 176 176 61 106 60 79 60 1218 l0 1039 84 -81 c90 -86
122 -101 191 -88 49 10 111 71 120 119 18 95 86 19 -1058 1163 -1146 1145
-1091 1096 -1270 1156 -71 23 -111 30 -196 33 -58 2 -127 0 -153 -5z"/>
</g>
</svg>
