<?xml version="1.0" standalone="no"?>
<!DOCTYPE svg PUBLIC "-//W3C//DTD SVG 20010904//EN"
 "http://www.w3.org/TR/2001/REC-SVG-20010904/DTD/svg10.dtd">
<svg version="1.0" xmlns="http://www.w3.org/2000/svg"
 width="512.000000pt" height="512.000000pt" viewBox="0 0 512.000000 512.000000"
 preserveAspectRatio="xMidYMid meet">

<g transform="translate(0.000000,512.000000) scale(0.100000,-0.100000)"
fill="#000000" stroke="none">
<path d="M2351 5109 c-828 -93 -1511 -691 -1707 -1494 -50 -207 -69 -501 -44
-692 89 -668 487 -1399 1215 -2233 170 -194 635 -657 679 -675 45 -19 87 -19
133 0 44 19 506 478 678 675 501 574 854 1114 1048 1605 122 310 176 569 177
847 0 475 -157 909 -462 1273 -304 363 -725 602 -1198 680 -116 19 -405 27
-519 14z m464 -654 c265 -55 483 -173 675 -365 192 -191 302 -394 361 -661 34
-149 34 -389 0 -538 -55 -251 -160 -451 -331 -634 -440 -470 -1160 -551 -1696
-191 -234 158 -425 407 -513 669 -52 158 -66 243 -66 425 0 181 14 267 65 422
156 467 582 819 1076 887 97 14 334 6 429 -14z"/>
<path d="M2387 4145 c-396 -75 -701 -362 -800 -755 -30 -121 -30 -339 0 -460
25 -98 69 -207 107 -268 42 -67 64 -60 131 44 64 99 135 177 218 241 68 53 70
65 22 153 -142 265 -36 612 231 752 326 171 713 -1 804 -357 36 -139 20 -270
-45 -394 -48 -90 -46 -101 23 -154 82 -64 153 -142 217 -241 66 -103 89 -111
130 -46 38 60 91 195 111 285 28 118 26 331 -4 449 -76 303 -281 552 -560 678
-165 75 -412 106 -585 73z"/>
<path d="M2480 3587 c-49 -16 -133 -102 -148 -153 -28 -94 -8 -169 63 -239
102 -103 243 -101 338 5 90 100 90 220 0 320 -65 72 -158 97 -253 67z"/>
<path d="M2470 2794 c-110 -21 -231 -86 -302 -160 -75 -79 -158 -257 -143
-305 12 -37 177 -112 320 -145 124 -29 339 -25 467 9 111 29 263 100 279 129
14 27 -19 135 -66 213 -97 161 -252 253 -440 260 -49 2 -101 1 -115 -1z"/>
</g>
</svg>
