<?xml version="1.0" standalone="no"?>
<!DOCTYPE svg PUBLIC "-//W3C//DTD SVG 20010904//EN"
 "http://www.w3.org/TR/2001/REC-SVG-20010904/DTD/svg10.dtd">
<svg version="1.0" xmlns="http://www.w3.org/2000/svg"
 width="512.000000pt" height="512.000000pt" viewBox="0 0 512.000000 512.000000"
 preserveAspectRatio="xMidYMid meet">

<g transform="translate(0.000000,512.000000) scale(0.100000,-0.100000)"
fill="#000000" stroke="none">
<path d="M2351 5109 c-828 -93 -1511 -691 -1707 -1494 -50 -207 -69 -501 -44
-692 89 -668 487 -1399 1215 -2233 170 -194 635 -657 679 -675 45 -19 87 -19
133 0 44 19 506 478 678 675 501 574 854 1114 1048 1605 122 310 176 569 177
847 0 475 -157 909 -462 1273 -304 363 -725 602 -1198 680 -116 19 -405 27
-519 14z m489 -333 c427 -77 815 -320 1063 -666 79 -112 185 -319 226 -445 61
-186 75 -279 76 -510 0 -250 -16 -346 -100 -600 -162 -487 -472 -989 -974
-1574 -125 -145 -361 -399 -490 -526 l-81 -80 -81 80 c-128 126 -364 380 -490
526 -581 676 -926 1280 -1047 1834 -24 109 -26 140 -26 335 0 186 3 229 22
320 154 714 715 1228 1439 1320 96 12 362 4 463 -14z"/>
<path d="M2386 4469 c-494 -68 -920 -419 -1076 -887 -51 -155 -65 -241 -65
-422 0 -120 5 -188 18 -250 90 -424 358 -766 741 -945 188 -88 338 -120 561
-120 130 0 180 5 264 24 528 116 915 509 1028 1041 25 118 25 382 0 500 -113
535 -512 935 -1042 1045 -95 20 -332 28 -429 14z m409 -338 c370 -92 655 -383
741 -756 29 -124 25 -340 -8 -466 -27 -99 -75 -210 -128 -293 l-32 -50 -38 77
c-65 128 -164 243 -281 324 l-56 39 19 24 c70 86 113 233 105 355 -22 337
-310 575 -639 527 -371 -53 -587 -466 -419 -800 16 -31 38 -68 49 -82 l19 -24
-66 -47 c-115 -81 -210 -192 -271 -316 l-38 -77 -32 50 c-53 83 -101 193 -128
293 -35 132 -37 353 -5 481 87 344 330 607 663 719 162 55 379 63 545 22z
m-161 -543 c86 -26 166 -136 166 -228 0 -124 -116 -240 -240 -240 -124 0 -240
116 -240 240 0 63 23 114 75 165 70 71 145 90 239 63z m108 -821 c171 -62 294
-196 344 -374 21 -75 20 -77 -78 -125 -287 -143 -609 -143 -896 0 -98 48 -99
50 -78 125 58 208 223 359 436 401 61 12 206 -3 272 -27z"/>
</g>
</svg>
